<svg width="24" height="30" viewBox="0 0 24 30" fill="none" xmlns="http://www.w3.org/2000/svg">
<path d="M13.5 10.5H21.75L13.5 2.25V10.5ZM3 0H15L24 9V27C24 27.7956 23.6839 28.5587 23.1213 29.1213C22.5587 29.6839 21.7956 30 21 30H3C2.20435 30 1.44129 29.6839 0.87868 29.1213C0.31607 28.5587 0 27.7956 0 27V3C0 1.335 1.335 0 3 0ZM15 27V25.5C15 23.505 10.995 22.5 9 22.5C7.005 22.5 3 23.505 3 25.5V27H15ZM9 15C8.20435 15 7.44129 15.3161 6.87868 15.8787C6.31607 16.4413 6 17.2044 6 18C6 18.7956 6.31607 19.5587 6.87868 20.1213C7.44129 20.6839 8.20435 21 9 21C9.79565 21 10.5587 20.6839 11.1213 20.1213C11.6839 19.5587 12 18.7956 12 18C12 17.2044 11.6839 16.4413 11.1213 15.8787C10.5587 15.3161 9.79565 15 9 15Z" fill="white"/>
</svg>
