<svg width="31" height="31" viewBox="0 0 31 31" fill="none" xmlns="http://www.w3.org/2000/svg">
<path d="M30.5493 28.3484L28.3485 30.5493C28.0581 30.838 27.6653 31 27.2558 31C26.8464 31 26.4535 30.838 26.1632 30.5493L7.75061 12.167C7.24665 12.3132 6.72541 12.3914 6.20074 12.3995C5.21393 12.3988 4.24156 12.1625 3.36445 11.7103C2.48734 11.2582 1.73084 10.6031 1.15784 9.79968C0.58485 8.99625 0.211918 8.06763 0.0700531 7.09104C-0.0718113 6.11445 0.0214906 5.1181 0.342202 4.18483L4.27889 8.12168L5.10032 7.30021L7.30115 5.0993L8.12258 4.27783L4.1859 0.340986C5.11913 0.0202627 6.11544 -0.0730429 7.09199 0.0688272C8.06854 0.210697 8.99712 0.583644 9.80052 1.15666C10.6039 1.72968 11.2589 2.48621 11.7111 3.36335C12.1633 4.2405 12.3995 5.21291 12.4002 6.19975C12.3921 6.72445 12.314 7.24571 12.1678 7.74969L30.5493 26.163C30.838 26.4534 31 26.8462 31 27.2557C31 27.6651 30.838 28.058 30.5493 28.3484ZM0.450693 26.163C0.162027 26.4534 0 26.8462 0 27.2557C0 27.6651 0.162027 28.058 0.450693 28.3484L2.65152 30.5493C2.94191 30.838 3.33473 31 3.74418 31C4.15364 31 4.54646 30.838 4.83684 30.5493L13.3147 22.0866L8.92852 17.7003M27.899 0L21.6995 3.09988V6.19975L18.3363 9.56312L21.436 12.663L24.7993 9.29963H27.899L30.9988 3.09988L27.899 0Z" fill="white"/>
</svg>
